<?xml version="1.0" encoding="UTF-8"?>
<svg xmlns="http://www.w3.org/2000/svg" xmlns:xlink="http://www.w3.org/1999/xlink" width="px" height="px" viewBox="0 0 288 384" version="1.1">
<g id="surface1">
<path style=" stroke:none;fill-rule:nonzero;fill:rgb(0%,0%,0%);fill-opacity:1;" d="M 153 4.875 C 76.050781 4.875 0 56.175781 0 139.199219 C 0 192 29.699219 222 47.699219 222 C 55.125 222 59.398438 201.300781 59.398438 195.449219 C 59.398438 188.476562 41.625 173.625 41.625 144.601562 C 41.625 84.300781 87.523438 41.550781 146.925781 41.550781 C 198 41.550781 235.800781 70.574219 235.800781 123.898438 C 235.800781 163.726562 219.824219 238.425781 168.074219 238.425781 C 149.398438 238.425781 133.425781 224.925781 133.425781 205.574219 C 133.425781 177.226562 153.226562 149.773438 153.226562 120.523438 C 153.226562 70.875 82.800781 79.875 82.800781 139.875 C 82.800781 152.476562 84.375 166.425781 90 177.898438 C 79.648438 222.449219 58.5 288.824219 58.5 334.726562 C 58.5 348.898438 60.523438 362.851562 61.875 377.023438 C 64.425781 379.875 63.148438 379.574219 67.050781 378.148438 C 104.851562 326.398438 103.5 316.273438 120.601562 248.550781 C 129.824219 266.101562 153.675781 275.550781 172.574219 275.550781 C 252.226562 275.550781 288 197.925781 288 127.949219 C 288 53.476562 223.648438 4.875 153 4.875 Z M 153 4.875 "/>
</g>
</svg>
