<?xml version="1.0" encoding="UTF-8"?>
<svg xmlns="http://www.w3.org/2000/svg" xmlns:xlink="http://www.w3.org/1999/xlink" width="px" height="px" viewBox="0 0 480 384" version="1.1">
<g id="surface1">
<path style=" stroke:none;fill-rule:nonzero;fill:rgb(0%,0%,0%);fill-opacity:1;" d="M 239.324219 263.324219 C 212.8125 263.324219 191.324219 284.820312 191.324219 311.332031 C 191.324219 337.84375 212.820312 359.339844 239.324219 359.339844 C 265.828125 359.339844 287.324219 337.84375 287.324219 311.332031 C 287.324219 284.820312 266.476562 263.324219 239.324219 263.324219 Z M 240 143.324219 C 187.3125 143.324219 136.574219 162.523438 97.125 197.347656 C 87.226562 206.773438 86.25 221.925781 95.023438 231.898438 C 103.875 241.800781 119.023438 242.773438 128.925781 234 C 159.601562 206.925781 199.050781 192 240 192 C 280.949219 192 320.476562 206.910156 351.074219 234 C 355.648438 238.050781 361.351562 240 366.976562 240 C 373.609375 240 380.21875 237.257812 384.976562 231.890625 C 393.75 221.925781 392.851562 206.773438 382.875 198 C 343.425781 163.199219 292.726562 143.324219 240 143.324219 Z M 472.648438 117.523438 C 409.726562 57.210938 327.148438 24 240 24 C 152.851562 24 70.265625 57.210938 7.382812 117.523438 C -2.179688 126.710938 -2.488281 141.898438 6.679688 151.460938 C 15.84375 161.046875 31.03125 161.300781 40.617188 152.164062 C 93.824219 99.824219 165.300781 72 240 72 C 314.699219 72 384.824219 100.476562 439.351562 152.175781 C 444.074219 156.601562 450 158.851562 456 158.851562 C 462.304688 158.851562 468.609375 156.390625 473.316406 151.46875 C 482.476562 141.898438 482.175781 126.074219 472.648438 117.523438 Z M 472.648438 117.523438 "/>
</g>
</svg>
