<?xml version="1.0" encoding="UTF-8"?>
<svg xmlns="http://www.w3.org/2000/svg" xmlns:xlink="http://www.w3.org/1999/xlink" width="17px" height="22px" viewBox="0 0 17 22" version="1.1">
<g id="surface1">
<path style=" stroke:none;fill-rule:nonzero;fill:rgb(0%,0%,0%);fill-opacity:1;" d="M 12.75 15.394531 C 13.367188 15.046875 13.527344 14.105469 14.027344 13.617188 C 14.53125 13.128906 15.503906 12.976562 15.859375 12.375 C 16.214844 11.785156 15.867188 10.894531 16.054688 10.214844 C 16.234375 9.5625 16.960938 8.960938 16.960938 8.25 C 16.960938 7.539062 16.195312 6.9375 16.015625 6.285156 C 15.828125 5.609375 16.175781 4.714844 15.820312 4.125 C 15.464844 3.523438 14.492188 3.371094 13.992188 2.882812 C 13.488281 2.394531 13.332031 1.453125 12.710938 1.105469 C 12.101562 0.761719 11.183594 1.097656 10.484375 0.917969 C 9.851562 0.742188 9.230469 0 8.5 0 C 7.769531 0 7.148438 0.742188 6.476562 0.917969 C 5.777344 1.097656 4.859375 0.761719 4.25 1.105469 C 3.628906 1.453125 3.472656 2.394531 2.972656 2.882812 C 2.46875 3.371094 1.496094 3.523438 1.136719 4.121094 C 0.785156 4.714844 1.132812 5.609375 0.945312 6.28125 C 0.765625 6.9375 0 7.539062 0 8.25 C 0 8.960938 0.765625 9.5625 0.945312 10.214844 C 1.132812 10.890625 0.785156 11.785156 1.136719 12.375 C 1.496094 12.976562 2.46875 13.125 2.96875 13.617188 C 3.472656 14.105469 3.628906 15.046875 4.25 15.394531 C 4.859375 15.738281 5.777344 15.402344 6.472656 15.582031 C 7.148438 15.757812 7.769531 16.5 8.5 16.5 C 9.230469 16.5 9.851562 15.757812 10.523438 15.582031 C 11.222656 15.40625 12.140625 15.738281 12.75 15.394531 Z M 4.957031 8.25 C 4.957031 6.347656 6.542969 4.8125 8.5 4.8125 C 10.457031 4.8125 12.042969 6.347656 12.042969 8.25 C 12.042969 10.148438 10.457031 11.6875 8.5 11.6875 C 6.542969 11.6875 4.957031 10.148438 4.957031 8.25 Z M 0.0742188 18.613281 C -0.0664062 18.964844 -0.00390625 19.363281 0.246094 19.65625 C 0.5 19.945312 0.890625 20.082031 1.269531 20.007812 L 3.273438 19.617188 L 4.21875 21.433594 C 4.402344 21.785156 4.761719 22 5.167969 22 C 5.179688 22 5.195312 22 5.210938 22 C 5.632812 21.984375 5.992188 21.738281 6.152344 21.359375 L 7.636719 17.832031 C 5.261719 17.632812 3.121094 16.625 1.519531 15.085938 Z M 15.476562 15.085938 C 13.875 16.625 11.738281 17.636719 9.359375 17.835938 L 10.84375 21.359375 C 11.003906 21.738281 11.363281 21.984375 11.785156 22 C 11.800781 21.960938 11.78125 22 11.832031 22 C 12.234375 22 12.597656 21.785156 12.777344 21.433594 L 13.726562 19.617188 L 15.726562 20.007812 C 16.109375 20.082031 16.5 19.945312 16.75 19.65625 C 17.003906 19.367188 17.066406 18.964844 16.921875 18.613281 Z M 15.476562 15.085938 "/>
</g>
</svg>
