<?xml version="1.0" encoding="UTF-8"?>
<svg xmlns="http://www.w3.org/2000/svg" xmlns:xlink="http://www.w3.org/1999/xlink" width="20px" height="18px" viewBox="0 0 20 18" version="1.1">
<g id="surface1">
<path style=" stroke:none;fill-rule:nonzero;fill:rgb(0%,0%,0%);fill-opacity:1;" d="M 16.324219 8.132812 C 16.324219 8.132812 16.585938 9.4375 16.644531 9.714844 L 15.484375 9.714844 C 15.601562 9.402344 16.042969 8.183594 16.042969 8.183594 C 16.035156 8.195312 16.15625 7.863281 16.226562 7.660156 Z M 20 2.8125 L 20 15.1875 C 20 16.117188 19.253906 16.875 18.332031 16.875 L 1.667969 16.875 C 0.746094 16.875 0 16.117188 0 15.1875 L 0 2.8125 C 0 1.882812 0.746094 1.125 1.667969 1.125 L 18.332031 1.125 C 19.253906 1.125 20 1.882812 20 2.8125 Z M 5.296875 11.644531 L 7.488281 6.1875 L 6.015625 6.1875 L 4.648438 9.914062 L 4.5 9.15625 L 4.015625 6.648438 C 3.933594 6.300781 3.6875 6.203125 3.382812 6.1875 L 1.136719 6.1875 L 1.109375 6.296875 C 1.660156 6.4375 2.148438 6.640625 2.578125 6.898438 L 3.820312 11.644531 Z M 8.574219 11.652344 L 9.449219 6.1875 L 8.050781 6.1875 L 7.179688 11.652344 Z M 13.429688 9.863281 C 13.4375 9.242188 13.0625 8.769531 12.261719 8.378906 C 11.769531 8.128906 11.472656 7.960938 11.472656 7.703125 C 11.480469 7.46875 11.726562 7.230469 12.273438 7.230469 C 12.730469 7.222656 13.0625 7.328125 13.3125 7.4375 L 13.4375 7.5 L 13.628906 6.316406 C 13.355469 6.207031 12.917969 6.085938 12.378906 6.085938 C 11 6.085938 10.03125 6.832031 10.023438 7.890625 C 10.015625 8.675781 10.71875 9.113281 11.246094 9.375 C 11.785156 9.644531 11.96875 9.820312 11.96875 10.054688 C 11.960938 10.421875 11.53125 10.589844 11.132812 10.589844 C 10.578125 10.589844 10.277344 10.5 9.824219 10.296875 L 9.640625 10.210938 L 9.445312 11.4375 C 9.769531 11.585938 10.375 11.722656 11 11.726562 C 12.464844 11.730469 13.421875 10.996094 13.429688 9.863281 Z M 18.332031 11.652344 L 17.207031 6.1875 L 16.128906 6.1875 C 15.796875 6.1875 15.542969 6.285156 15.398438 6.640625 L 13.328125 11.652344 L 14.792969 11.652344 C 14.792969 11.652344 15.03125 10.976562 15.082031 10.832031 L 16.875 10.832031 C 16.917969 11.023438 17.042969 11.652344 17.042969 11.652344 Z M 18.332031 11.652344 "/>
</g>
</svg>
